<svg width="25" height="25" viewBox="0 0 25 25" fill="none" xmlns="http://www.w3.org/2000/svg">
<path fill-rule="evenodd" clip-rule="evenodd" d="M10.7468 0.726854C10.7468 0.727387 10.7466 0.727899 10.7462 0.728276L8.86365 2.60919C8.71159 2.76131 8.50546 2.847 8.29037 2.8475H5.32729C3.95741 2.8475 2.8475 3.95741 2.8475 5.32729V8.29037C2.8475 8.50701 2.76084 8.712 2.60919 8.86531L0.726021 10.7468C0.261149 11.2118 0 11.8425 0 12.5C0 13.1575 0.261149 13.7882 0.726021 14.2532L2.60919 16.1364C2.76131 16.2884 2.847 16.4945 2.8475 16.7096V19.6727C2.8475 21.0426 3.95741 22.1525 5.32729 22.1525H8.29037C8.50701 22.1525 8.712 22.2392 8.86531 22.3908L10.7468 24.274C11.2118 24.7388 11.8425 25 12.5 25C13.1575 25 13.7882 24.7388 14.2532 24.274L16.1364 22.3908C16.2884 22.2387 16.4945 22.153 16.7096 22.1525H19.6727C21.0426 22.1525 22.1525 21.0426 22.1525 19.6727V16.7096C22.1525 16.493 22.2392 16.288 22.3908 16.1347L24.274 14.2532C24.7388 13.7882 25 13.1575 25 12.5C25 11.8425 24.7388 11.2118 24.274 10.7468L22.3908 8.86365C22.2387 8.71159 22.153 8.50546 22.1525 8.29037V5.32729C22.1525 3.95741 21.0426 2.8475 19.6727 2.8475H16.7096C16.494 2.84744 16.2872 2.76172 16.1347 2.60919L14.2532 0.726021C13.7882 0.261149 13.1575 0 12.5 0C11.8427 0 11.2124 0.260928 10.7474 0.725431C10.747 0.725808 10.7468 0.726321 10.7468 0.726854ZM8.33369 16.6663C8.00787 16.3405 8.00787 15.8122 8.33369 15.4864L15.4864 8.33369C15.8122 8.00787 16.3405 8.00787 16.6663 8.33369C16.9921 8.65951 16.9921 9.18777 16.6663 9.51359L9.51359 16.6663C9.18777 16.9921 8.65951 16.9921 8.33369 16.6663ZM9.16696 8.33369C8.70676 8.33369 8.33369 8.70676 8.33369 9.16696C8.33369 9.62715 8.70676 10.0002 9.16696 10.0002C9.62715 10.0002 10.0002 9.62715 10.0002 9.16696C10.0002 8.70676 9.62715 8.33369 9.16696 8.33369ZM14.9998 15.833C14.9998 16.2932 15.3728 16.6663 15.833 16.6663C16.2932 16.6663 16.6663 16.2932 16.6663 15.833C16.6663 15.3728 16.2932 14.9998 15.833 14.9998C15.3728 14.9998 14.9998 15.3728 14.9998 15.833Z" fill="url(#paint0_linear)"/>
<defs>
<linearGradient id="paint0_linear" x1="0" y1="0" x2="24.9356" y2="0.0171226" gradientUnits="userSpaceOnUse">
<stop stop-color="#FFB800"/>
<stop offset="1" stop-color="#FF4185"/>
</linearGradient>
</defs>
</svg>
