<svg width="35" height="25" viewBox="0 0 35 25" fill="none" xmlns="http://www.w3.org/2000/svg">
<path d="M3.125 0C2.2962 0 1.50134 0.32924 0.915291 0.915291C0.32924 1.50134 0 2.2962 0 3.125V20.3125H3.125C3.125 21.5557 3.61886 22.748 4.49794 23.6271C5.37701 24.5061 6.5693 25 7.8125 25C9.0557 25 10.248 24.5061 11.1271 23.6271C12.0061 22.748 12.5 21.5557 12.5 20.3125H21.875C21.875 21.5557 22.3689 22.748 23.2479 23.6271C24.127 24.5061 25.3193 25 26.5625 25C27.8057 25 28.998 24.5061 29.8771 23.6271C30.7561 22.748 31.25 21.5557 31.25 20.3125H34.375V12.5L29.6875 6.25H25V0H3.125ZM14.0625 3.125L20.3125 9.375L14.0625 15.625V10.9375H4.6875V7.8125H14.0625V3.125ZM25 8.59375H28.9062L31.9844 12.5H25V8.59375ZM7.8125 17.9688C8.4341 17.9688 9.03024 18.2157 9.46978 18.6552C9.90932 19.0948 10.1562 19.6909 10.1562 20.3125C10.1562 20.9341 9.90932 21.5302 9.46978 21.9698C9.03024 22.4093 8.4341 22.6562 7.8125 22.6562C7.1909 22.6562 6.59476 22.4093 6.15522 21.9698C5.71568 21.5302 5.46875 20.9341 5.46875 20.3125C5.46875 19.6909 5.71568 19.0948 6.15522 18.6552C6.59476 18.2157 7.1909 17.9688 7.8125 17.9688ZM26.5625 17.9688C27.1841 17.9688 27.7802 18.2157 28.2198 18.6552C28.6593 19.0948 28.9062 19.6909 28.9062 20.3125C28.9062 20.9341 28.6593 21.5302 28.2198 21.9698C27.7802 22.4093 27.1841 22.6562 26.5625 22.6562C25.9409 22.6562 25.3448 22.4093 24.9052 21.9698C24.4657 21.5302 24.2188 20.9341 24.2188 20.3125C24.2188 19.6909 24.4657 19.0948 24.9052 18.6552C25.3448 18.2157 25.9409 17.9688 26.5625 17.9688Z" fill="url(#paint0_linear)"/>
<defs>
<linearGradient id="paint0_linear" x1="0" y1="0" x2="34.2864" y2="0.0323724" gradientUnits="userSpaceOnUse">
<stop stop-color="#FFB800"/>
<stop offset="1" stop-color="#FF4185"/>
</linearGradient>
</defs>
</svg>
