<svg width="28" height="25" viewBox="0 0 28 25" fill="none" xmlns="http://www.w3.org/2000/svg">
<path d="M25.2015 14.7296C26.3174 13.4536 26.3174 11.5464 25.2015 10.2704C24.5921 9.57361 24.295 8.6543 24.3799 7.73257C24.535 6.04896 23.4193 4.50584 21.7706 4.13134C20.8663 3.92593 20.0846 3.35378 19.613 2.55531C18.7523 1.09798 16.9391 0.500115 15.3839 1.16794C14.5362 1.53197 13.5758 1.5318 12.728 1.16777C11.173 0.500014 9.36167 1.09183 8.49903 2.54782C8.02691 3.34469 7.24619 3.91258 6.34243 4.11537C4.69431 4.48517 3.57794 6.03516 3.7325 7.71717C3.81715 8.63838 3.51884 9.5647 2.91108 10.2621C1.79743 11.5401 1.79297 13.4514 2.90888 14.7274C3.51985 15.426 3.8172 16.3492 3.73228 17.2734C3.57747 18.958 4.69527 20.5066 6.34501 20.8813C7.24687 21.0862 8.02634 21.6544 8.49776 22.45C9.36052 23.9062 11.1728 24.4967 12.7264 23.8249C13.5752 23.458 14.5379 23.4569 15.3877 23.8218C16.941 24.4888 18.7512 23.8954 19.6129 22.441C20.085 21.6441 20.8655 21.0742 21.7688 20.8691C23.4185 20.4943 24.5351 18.9515 24.3798 17.2668C24.2949 16.3451 24.5921 15.4264 25.2015 14.7296ZM14.0487 15.8466C12.798 17.1006 10.7667 17.1007 9.51595 15.8467L8.13683 14.4639C7.65159 13.9774 7.6521 13.1898 8.13798 12.7039C8.62505 12.2168 9.41502 12.2177 9.90104 12.7058L10.4002 13.2072C11.1627 13.9729 12.4023 13.9732 13.1651 13.2078L17.8659 8.49095C18.3521 8.00308 19.1419 8.00241 19.629 8.48945C20.1149 8.97543 20.1155 9.7632 19.6302 10.2498L14.0487 15.8466Z" fill="url(#paint0_linear)"/>
<defs>
<linearGradient id="paint0_linear" x1="0.960937" y1="0" x2="27.0839" y2="0.0187922" gradientUnits="userSpaceOnUse">
<stop stop-color="#FFB800"/>
<stop offset="1" stop-color="#FF4185"/>
</linearGradient>
</defs>
</svg>
