<svg width="28" height="25" viewBox="0 0 28 25" fill="none" xmlns="http://www.w3.org/2000/svg">
<path d="M22.2612 8.63188C26.3062 1.69113 17.9865 -2.81346 7.41446 2.01289C0.933366 5.00063 -3.57123 14.1937 5.43796 22.0997C11.8271 27.7074 27.9609 24.5358 27.9609 18.1007C27.9609 10.9761 17.9865 15.8944 22.2612 8.63188ZM24.5135 19.9393C23.2265 21.0425 21.204 21.0425 19.917 19.9393C18.63 18.8362 18.63 17.8709 19.917 16.7677C21.204 15.6646 23.2265 15.6646 24.5135 16.7677C25.8006 17.8709 25.7546 18.8362 24.5135 19.9393Z" fill="url(#paint0_linear)"/>
<path d="M14.723 18.5144C13.298 17.4113 11.0457 17.4113 9.62082 18.5144C8.19589 19.6176 8.19589 21.3643 9.62082 22.4675C11.0457 23.5706 13.298 23.5706 14.723 22.4675C16.1019 21.3643 16.1019 19.5716 14.723 18.5144Z" fill="url(#paint1_linear)"/>
<path d="M8.4717 13.2285C6.90889 12.493 4.79449 12.9527 3.69132 14.2857C2.58815 15.6187 2.95588 17.2734 4.51869 18.0089C6.08151 18.7443 8.19591 18.2846 9.29908 16.9517C10.4022 15.6187 10.0345 13.9639 8.4717 13.2285Z" fill="url(#paint2_linear)"/>
<path d="M7.27665 7.25298C5.94366 6.51754 3.96715 6.8393 2.95592 7.98843C1.89872 9.13756 2.17451 10.6544 3.5075 11.3439C4.84049 12.0793 6.817 11.7576 7.82823 10.6084C8.83947 9.45931 8.60964 7.98843 7.27665 7.25298Z" fill="url(#paint3_linear)"/>
<path d="M12.5166 2.74835C11.2296 2.01291 9.34498 2.2887 8.33375 3.39187C7.32251 4.49503 7.50637 5.91995 8.83936 6.6554C10.1264 7.39084 12.011 7.11505 13.0222 6.01188C14.0334 4.90872 13.8036 3.43783 12.5166 2.74835Z" fill="url(#paint4_linear)"/>
<path d="M20.009 2.24278C18.9977 1.4154 17.297 1.23154 16.1019 1.78313C14.9528 2.33471 14.8149 3.48384 15.8261 4.31121C16.8374 5.13859 18.5381 5.32245 19.7332 4.77087C20.8823 4.17332 20.9742 3.07015 20.009 2.24278Z" fill="url(#paint5_linear)"/>
<path d="M17.8485 17.1354C17.7288 17.2677 17.5426 17.3983 17.3104 17.5251C16.0688 18.2034 14.6862 16.101 15.0906 14.7453C15.4583 13.5042 17.251 13.5042 18.0324 14.1937C18.8138 14.8372 18.7218 16.1702 17.8485 17.1354Z" fill="url(#paint6_linear)"/>
<path d="M26.4441 3.43792C26.9037 3.39195 27.7771 4.17336 27.823 4.58705C27.9373 6.22428 22.2798 11.3624 20.3341 13.0781C19.96 13.408 19.4068 13.4086 19.0236 13.0892C18.6181 12.7513 18.5347 12.1641 18.8401 11.7336C20.371 9.57484 24.7846 3.55106 26.4441 3.43792Z" fill="url(#paint7_linear)"/>
<path d="M17.7323 13.1354C17.394 13.5127 17.4383 14.0969 17.8276 14.4213C18.1974 14.7295 18.7467 14.6912 19.0681 14.3327C19.4063 13.9554 19.3621 13.3712 18.9728 13.0468C18.6029 12.7385 18.0537 12.7769 17.7323 13.1354Z" fill="url(#paint8_linear)"/>
<defs>
<linearGradient id="paint0_linear" x1="0.375" y1="0" x2="27.8898" y2="0.020848" gradientUnits="userSpaceOnUse">
<stop stop-color="#FFB800"/>
<stop offset="1" stop-color="#FF4185"/>
</linearGradient>
<linearGradient id="paint1_linear" x1="8.55212" y1="17.6871" x2="15.7386" y2="17.6934" gradientUnits="userSpaceOnUse">
<stop stop-color="#FFB800"/>
<stop offset="1" stop-color="#FF4185"/>
</linearGradient>
<linearGradient id="paint2_linear" x1="3.05542" y1="12.879" x2="9.91724" y2="12.8849" gradientUnits="userSpaceOnUse">
<stop stop-color="#FFB800"/>
<stop offset="1" stop-color="#FF4185"/>
</linearGradient>
<linearGradient id="paint3_linear" x1="2.30872" y1="6.85901" x2="8.44002" y2="6.86431" gradientUnits="userSpaceOnUse">
<stop stop-color="#FFB800"/>
<stop offset="1" stop-color="#FF4185"/>
</linearGradient>
<linearGradient id="paint4_linear" x1="7.68848" y1="2.33789" x2="13.6378" y2="2.34304" gradientUnits="userSpaceOnUse">
<stop stop-color="#FFB800"/>
<stop offset="1" stop-color="#FF4185"/>
</linearGradient>
<linearGradient id="paint5_linear" x1="15.1465" y1="1.46783" x2="20.6557" y2="1.47361" gradientUnits="userSpaceOnUse">
<stop stop-color="#FFB800"/>
<stop offset="1" stop-color="#FF4185"/>
</linearGradient>
<linearGradient id="paint6_linear" x1="12.5625" y1="13.7305" x2="18.5498" y2="13.7352" gradientUnits="userSpaceOnUse">
<stop stop-color="#FFB800"/>
<stop offset="1" stop-color="#FF4185"/>
</linearGradient>
<linearGradient id="paint7_linear" x1="18.3082" y1="3.43597" x2="27.8002" y2="3.44205" gradientUnits="userSpaceOnUse">
<stop stop-color="#FFB800"/>
<stop offset="1" stop-color="#FF4185"/>
</linearGradient>
<linearGradient id="paint8_linear" x1="17.1132" y1="12.493" x2="19.6806" y2="12.4948" gradientUnits="userSpaceOnUse">
<stop stop-color="#FFB800"/>
<stop offset="1" stop-color="#FF4185"/>
</linearGradient>
</defs>
</svg>
